#!OML:ASF X:\für Bonn\!DataBase\2005_08_12_Daniel\c3d\Daniel.ASF
:FULLY-SPECIFIED
:DEGREES
1
root 2.91539 17.5925 17.3489 -5.06476 7.26149 -1.47741
lowerback 6.21589 -2.33272 1.28205
upperback 0.273496 -3.0476 -0.91572
thorax -3.31713 -1.54167 -1.38704
lowerneck 0.211321 0.666107 -4.99609
upperneck 10.0278 1.26953 -2.63572
head 3.16637 0.358435 0.0397438
rclavicle 1.60519e-014 -7.15625e-015
rhumerus -54.4755 6.39097 -96.1267
rradius 57.9303
rwrist -18.2519
rhand -15.4191 17.7106
rfingers 7.12502
rthumb 10.7605 -11.9938
lclavicle 1.60519e-014 -7.15625e-015
lhumerus -39.133 38.2389 66.1987
lradius 20.2811
lwrist -35.4009
lhand -10.5375 -5.63786
lfingers 7.12502
lthumb 15.466 23.7635
rfemur 9.74722 19.434 22.3996
rtibia 12.7105
rfoot -21.8011 -23.002
rtoes -15.0084
lfemur 1.23288 -17.3259 -18.8281
ltibia 28.2584
lfoot -24.2387 9.10366
ltoes -13.0624
2
root 2.91397 17.5922 17.3465 -5.07471 7.27953 -1.47724
lowerback 6.22433 -2.36097 1.19944
upperback 0.277102 -3.09022 -0.893982
thorax -3.31403 -1.56137 -1.31425
lowerneck 0.206251 0.686728 -4.95106
upperneck 10.0246 1.29691 -2.64644
head 3.16604 0.373271 0.0292904
rclavicle 5.25537e-015 -1.63003e-014
rhumerus -54.2059 6.28937 -95.9563
rradius 58.8836
rwrist -17.6749
rhand -15.6614 17.9698
rfingers 7.12502
rthumb 10.5268 -11.7466
lclavicle 5.25537e-015 -1.63003e-014
lhumerus -39.1008 38.2963 66.2004
lradius 20.2733
lwrist -35.3447
lhand -10.527 -5.63385
lfingers 7.12502
lthumb 15.4761 23.7667
rfemur 9.74516 19.4317 22.4069
rtibia 12.724
rfoot -21.8071 -23.0173
rtoes -15.0052
lfemur 1.23349 -17.3075 -18.8155
ltibia 28.2516
lfoot -24.2236 9.06585
ltoes -13.0655
3
root 2.9124 17.5917 17.344 -5.09789 7.31826 -1.47939
lowerback 6.24768 -2.38568 1.13147
upperback 0.283176 -3.12738 -0.884489
thorax -3.31789 -1.57868 -1.2622
lowerneck 0.220515 0.696432 -4.89215
upperneck 10.0078 1.30826 -2.66643
head 3.15768 0.380925 0.0129257
rclavicle 2.21272e-014 1.82882e-014
rhumerus -53.9396 6.1516 -95.8178
rradius 59.8867
rwrist -16.9977
rhand -16.0321 18.3573
rfingers 7.12502
rthumb 10.1692 -11.3769
lclavicle 2.21272e-014 1.82882e-014
lhumerus -39.0804 38.4158 66.1554
lradius 20.2489
lwrist -35.4066
lhand -10.5711 -5.66753
lfingers 7.12502
lthumb 15.4336 23.7363
rfemur 9.75747 19.4089 22.42
rtibia 12.7409
rfoot -21.8186 -23.0322
rtoes -15.0568
lfemur 1.23984 -17.3022 -18.8027
ltibia 28.2438
lfoot -24.2115 9.02056
ltoes -13.0682
4
root 2.91005 17.5918 17.3421 -5.11417 7.36166 -1.48022
lowerback 6.25922 -2.41249 1.04774
upperback 0.284689 -3.16848 -0.871704
thorax -3.31882 -1.59771 -1.19798
lowerneck 0.239057 0.704731 -4.84166
upperneck 10.003 1.31788 -2.68302
head 3.15266 0.387229 -0.000954955
rclavicle 3.96327e-015 7.95139e-015
rhumerus -53.7006 6.06364 -95.7261
rradius 60.9742
rwrist -16.2687
rhand -16.5741 18.8275
rfingers 7.12502
rthumb 9.64625 -10.9317
lclavicle 3.96327e-015 7.95139e-015
lhumerus -39.0553 38.4632 66.1433
lradius 20.2438
lwrist -35.4167
lhand -10.6144 -5.71491
lfingers 7.12502
lthumb 15.3919 23.6921
rfemur 9.76822 19.4024 22.4388
rtibia 12.757
rfoot -21.8404 -23.0667
rtoes -15.0409
lfemur 1.23789 -17.2918 -18.7843
ltibia 28.2372
lfoot -24.1888 8.96451
ltoes -13.0733
5
root 2.90791 17.5913 17.3402 -5.12923 7.4244 -1.46943
lowerback 6.26819 -2.4407 0.944947
upperback 0.284757 -3.21258 -0.851266
thorax -3.31826 -1.61789 -1.11505
lowerneck 0.280471 0.712403 -4.80767
upperneck 9.96919 1.3243 -2.69759
head 3.13339 0.392431 -0.0115683
rclavicle 3.87382e-014 -1.11319e-014
rhumerus -53.4741 6.00268 -95.6456
rradius 62.1474
rwrist -15.5235
rhand -17.1713 19.3428
rfingers 7.12502
rthumb 9.07005 -10.4422
lclavicle 3.87382e-014 -1.11319e-014
lhumerus -39.0303 38.5716 66.1236
lradius 20.2173
lwrist -35.4588
lhand -10.6663 -5.75693
lfingers 7.12502
lthumb 15.342 23.6539
rfemur 9.78355 19.3715 22.4404
rtibia 12.7688
rfoot -21.8715 -23.0941
rtoes -15.0352
lfemur 1.2323 -17.2897 -18.7786
ltibia 28.2316
lfoot -24.1627 8.90041
ltoes -13.0798
6
root 2.90601 17.5911 17.3388 -5.14717 7.49385 -1.4699
lowerback 6.26643 -2.46468 0.868905
upperback 0.295925 -3.24961 -0.84359
thorax -3.30208 -1.63497 -1.06164
lowerneck 0.260276 0.712125 -4.76373
upperneck 9.98175 1.3235 -2.68588
head 3.14148 0.393481 -0.0151954
rclavicle 1.19147e-014 1.78906e-014
rhumerus -53.2278 5.93656 -95.5958
rradius 63.4038
rwrist -14.8098
rhand -17.8296 19.9896
rfingers 7.12502
rthumb 8.43474 -9.822
lclavicle 1.19147e-014 1.78906e-014
lhumerus -38.9725 38.6134 66.1451
lradius 20.2327
lwrist -35.4716
lhand -10.6947 -5.79585
lfingers 7.12502
lthumb 15.3146 23.6171
rfemur 9.80472 19.3548 22.4559
rtibia 12.7823
rfoot -21.9225 -23.1242
rtoes -14.9729
lfemur 1.23611 -17.3303 -18.7752
ltibia 28.228
lfoot -24.1467 8.87057
ltoes -13.0826
7
root 2.90328 17.5908 17.3361 -5.16468 7.57371 -1.47184
lowerback 6.28459 -2.48989 0.782825
upperback 0.292099 -3.28877 -0.830132
thorax -3.3116 -1.65304 -0.995199
lowerneck 0.271924 0.714158 -4.73506
upperneck 9.99311 1.32481 -2.68233
head 3.14323 0.395076 -0.0189805
rclavicle -1.4387e-014 -4.37326e-015
rhumerus -53.0004 5.89842 -95.5795
rradius 64.7347
rwrist -14.0787
rhand -18.5316 20.6645
rfingers 7.12502
rthumb 7.75722 -9.17318
lclavicle -1.4387e-014 -4.37326e-015
lhumerus -38.937 38.6664 66.1504
lradius 20.2267
lwrist -35.473
lhand -10.772 -5.87667
lfingers 7.12502
lthumb 15.2401 23.542
rfemur 9.82028 19.3249 22.4766
rtibia 12.7966
rfoot -21.9521 -23.1831
rtoes -14.9761
lfemur 1.2199 -17.3247 -18.7475
ltibia 28.2259
lfoot -24.1142 8.78331
ltoes -13.0908
8
root 2.9008 17.5904 17.3325 -5.18727 7.66193 -1.46115
lowerback 6.31757 -2.50631 0.701276
upperback 0.293153 -3.31639 -0.833127
thorax -3.32521 -1.66553 -0.948733
lowerneck 0.271013 0.705401 -4.68875
upperneck 10.0066 1.31041 -2.65902
head 3.14809 0.390044 -0.0197081
rclavicle -6.58474e-015 -5.96354e-015
rhumerus -52.7764 5.84051 -95.5932
rradius 66.1757
rwrist -13.3652
rhand -19.2554 21.3222
rfingers 7.12502
rthumb 7.05866 -8.54014
lclavicle -6.58474e-015 -5.96354e-015
lhumerus -38.8654 38.6368 66.2021
lradius 20.2706
lwrist -35.4155
lhand -10.7515 -5.94494
lfingers 7.12502
lthumb 15.2598 23.4722
rfemur 9.84371 19.2949 22.4831
rtibia 12.8059
rfoot -21.9932 -23.2322
rtoes -15.0115
lfemur 1.20406 -17.33 -18.7395
ltibia 28.2275
lfoot -24.078 8.70136
ltoes -13.0987
9
root 2.89822 17.5909 17.328 -5.19894 7.76172 -1.4623
lowerback 6.34991 -2.52572 0.638215
upperback 0.284131 -3.34686 -0.837916
thorax -3.35005 -1.67978 -0.913893
lowerneck 0.24572 0.688456 -4.65238
upperneck 10.059 1.2885 -2.63693
head 3.17102 0.379636 -0.0191937
rclavicle 2.36057e-016 -3.97569e-015
rhumerus -52.548 5.78546 -95.6286
rradius 67.7127
rwrist -12.7062
rhand -19.9296 21.9631
rfingers 7.12502
rthumb 6.40781 -7.91997
lclavicle 2.36057e-016 -3.97569e-015
lhumerus -38.7834 38.5898 66.2633
lradius 20.301
lwrist -35.3501
lhand -10.7557 -6.00561
lfingers 7.12502
lthumb 15.2558 23.4118
rfemur 9.83726 19.2288 22.4854
rtibia 12.8228
rfoot -22.0076 -23.2612
rtoes -15.0001
lfemur 1.16861 -17.3281 -18.7086
ltibia 28.2303
lfoot -24.0375 8.59902
ltoes -13.1071
10
root 2.89544 17.5908 17.3233 -5.21776 7.86036 -1.46156
lowerback 6.38609 -2.53843 0.567577
upperback 0.279504 -3.36898 -0.843554
thorax -3.37186 -1.68972 -0.876408
lowerneck 0.259104 0.674746 -4.60403
upperneck 10.0597 1.26622 -2.61642
head 3.16891 0.371184 -0.021469
rclavicle -4.72114e-015 1.31198e-014
rhumerus -52.2842 5.70598 -95.6659
rradius 69.3671
rwrist -12.0988
rhand -20.4943 22.4395
rfingers 7.12502
rthumb 5.86255 -7.45937
lclavicle -4.72114e-015 1.31198e-014
lhumerus -38.7196 38.5692 66.3138
lradius 20.3638
lwrist -35.3362
lhand -10.7543 -6.05858
lfingers 7.12502
lthumb 15.2572 23.3588
rfemur 9.84746 19.1874 22.4978
rtibia 12.8393
rfoot -22.0378 -23.311
rtoes -14.9823
lfemur 1.1378 -17.3317 -18.684
ltibia 28.2346
lfoot -23.9952 8.50367
ltoes -13.1158
11
root 2.89318 17.5916 17.3177 -5.24058 7.9748 -1.45211
lowerback 6.4498 -2.55255 0.497165
upperback 0.259449 -3.3933 -0.854305
thorax -3.42538 -1.70082 -0.842351
lowerneck 0.287781 0.657355 -4.58139
upperneck 10.0813 1.23711 -2.56724
head 3.17094 0.358969 -0.0102909
rclavicle 3.47873e-016 -1.59028e-015
rhumerus -52.0306 5.61858 -95.7246
rradius 71.1263
rwrist -11.5623
rhand -20.9769 22.8435
rfingers 7.12502
rthumb 5.39663 -7.06775
lclavicle 3.47873e-016 -1.59028e-015
lhumerus -38.6356 38.3779 66.4621
lradius 20.4828
lwrist -35.1233
lhand -10.7016 -6.06108
lfingers 7.12502
lthumb 15.3079 23.3524
rfemur 9.86759 19.128 22.4933
rtibia 12.845
rfoot -22.0769 -23.343
rtoes -14.9213
lfemur 1.10152 -17.339 -18.6693
ltibia 28.2461
lfoot -23.9493 8.39811
ltoes -13.072
12
root 2.89058 17.5916 17.3112 -5.25959 8.09395 -1.4531
lowerback 6.49887 -2.56855 0.434159
upperback 0.256388 -3.41944 -0.861814
thorax -3.45335 -1.71282 -0.810046
lowerneck 0.257262 0.634983 -4.54059
upperneck 10.1305 1.20798 -2.5458
head 3.19382 0.345245 -0.010926
rclavicle 5.49143e-015 -1.35174e-014
rhumerus -51.7798 5.5365 -95.7754
rradius 73.0843
rwrist -11.0703
rhand -21.3368 22.9851
rfingers 7.12502
rthumb 5.04915 -6.93472
lclavicle 5.49143e-015 -1.35174e-014
lhumerus -38.5201 38.1004 66.682
lradius 20.6583
lwrist -34.8381
lhand -10.648 -6.07252
lfingers 7.12502
lthumb 15.3596 23.337
rfemur 9.87612 19.0629 22.5001
rtibia 12.8527
rfoot -22.0976 -23.3903
rtoes -14.9031
lfemur 1.05784 -17.3468 -18.6397
ltibia 28.2576
lfoot -23.9022 8.28668
ltoes -13.0814
